<svg version="1.1" xmlns="http://www.w3.org/2000/svg" xmlns:xlink="http://www.w3.org/1999/xlink" width="19" height="20" viewBox="0,0,243.1875,256"><g fill="#ffa501" fill-rule="nonzero" stroke="none" stroke-width="1" stroke-linecap="butt" stroke-linejoin="miter" stroke-miterlimit="10" stroke-dasharray="" stroke-dashoffset="0" font-family="none" font-weight="none" font-size="none" text-anchor="none" style="mix-blend-mode: normal"><g transform="translate(-0.0063,0.00633) scale(12.8,12.8)"><path d="M0,9.99951c0,5.52499 4.36167,9.99999 9.74107,9.99999c4.30463,0 7.95513,-2.865 9.24213,-6.8375c0.0917,-0.5 -0.2098,-0.6833 -0.4684,-0.6833c-0.2313,0 -0.8442,0.0083 -1.6563,0.0125c0.5874,2.7816 -1.3068,3.3683 -1.3068,3.3683c-1.1243,0.455 -1.425,1.1125 -1.425,1.1125c-0.6039,0.9058 -0.5915,-0.07 -0.5915,-0.07c0.0678,-1.0042 1.0037,-1.5317 1.0037,-1.5317c1.4894,-0.8916 1.059,-2.3408 0.8104,-2.9125c-0.6303,-0.09 -1.059,-0.3475 -1.3027,-0.6333c-0.2437,2.2208 -1.0814,4.555 -4.81356,4.555c-1.06316,0 -1.93219,-0.3875 -2.61371,-1.0292c-0.24617,0.1125 -1.23663,0.45 -2.57817,-0.0875c0,0 -0.26104,-0.8375 0.99872,-2.75c-0.21643,-0.8 -0.32382,-1.65 -0.32878,-2.5c0.00496,-0.84996 0.11235,-1.69995 0.32878,-2.49996c-1.25976,-1.89999 -0.99872,-2.73749 -0.99872,-2.73749c1.34154,-0.5375 2.332,-0.20001 2.57817,-0.1c0.68152,-0.6375 1.55055,-1.025 2.61371,-1.025c3.74216,0 4.56566,2.33749 4.80526,4.56249c0.2924,-0.35 0.8897,-0.675 1.8025,-0.675c1.3036,0 2.351,0.0125 2.6674,0.0125c0.2553,0 0.5601,-0.175 0.4626,-0.6875c-1.2788,-4.00083 -4.9317,-6.86333 -9.22973,-6.86333c-5.3794,0 -9.74107,4.4775 -9.74107,10z"></path></g></g></svg>