<svg version="1.1" xmlns="http://www.w3.org/2000/svg" xmlns:xlink="http://www.w3.org/1999/xlink" width="20" height="20" viewBox="0,0,256,256"><g fill="#ffa501" fill-rule="nonzero" stroke="none" stroke-width="1" stroke-linecap="butt" stroke-linejoin="miter" stroke-miterlimit="10" stroke-dasharray="" stroke-dashoffset="0" font-family="none" font-weight="none" font-size="none" text-anchor="none" style="mix-blend-mode: normal"><g transform="translate(0,0) scale(12.8,12.8)"><path d="M0,6.25l0,7.5c0,3.4512 2.79875,6.25 6.25,6.25h7.5c3.4513,0 6.25,-2.7988 6.25,-6.25v-7.5c0,-3.45125 -2.7988,-6.25 -6.25,-6.25l-7.5,0c-3.45125,0 -6.25,2.79875 -6.25,6.25zM13.75,1.875c2.4125,0 4.375,1.9625 4.375,4.375v7.5c0,2.4125 -1.9625,4.375 -4.375,4.375h-7.5c-2.4125,0 -4.375,-1.9625 -4.375,-4.375v-7.5c0,-2.4125 1.9625,-4.375 4.375,-4.375z"></path><path d="M5,10c0,2.7612 2.23875,5 5,5c2.7613,0 5,-2.2388 5,-5c0,-2.76125 -2.2388,-5 -5,-5c-2.76125,0 -5,2.23875 -5,5zM13.125,10c0,1.7225 -1.4025,3.125 -3.125,3.125c-1.72375,0 -3.125,-1.4025 -3.125,-3.125c0,-1.7225 1.40125,-3.125 3.125,-3.125c1.7225,0 3.125,1.4025 3.125,3.125z"></path><path d="M5.29123,4.625c0,-0.36796 -0.29828,-0.66625 -0.66624,-0.66625c-0.36796,0 -0.66625,0.29829 -0.66625,0.66625c0,0.36796 0.29829,0.66625 0.66625,0.66625c0.36796,0 0.66624,-0.29829 0.66624,-0.66625z"></path></g></g></svg>