<?xml version="1.0" encoding="UTF-8"?>
<svg width="256px" height="256px" viewBox="0 0 256 256" version="1.1" xmlns="http://www.w3.org/2000/svg" xmlns:xlink="http://www.w3.org/1999/xlink">
    <title>telegram_2</title>
    <g id="Page-1" stroke="none" stroke-width="1" fill="none" fill-rule="evenodd">
        <g id="telegram_2" transform="translate(127.999950, 127.999950) rotate(-90.000000) translate(-127.999950, -127.999950) " fill="#FFA501" fill-rule="nonzero">
            <path d="M127.99995,255.9999 C198.709682,255.9999 255.9999,198.709682 255.9999,127.99995 C255.9999,57.2906443 198.709682,0 127.99995,0 C57.2906443,0 0,57.2906443 0,127.99995 C0,198.709682 57.2906443,255.9999 127.99995,255.9999 Z M58.5706438,125.226618 L181.984356,77.6426363 C187.711927,75.5733038 192.714165,79.0399691 190.858165,87.7012991 L190.869259,87.6902057 L169.855934,186.687927 C168.298601,193.706591 164.127509,195.413257 158.293271,192.106592 L126.293284,168.522174 L110.858197,183.392355 C109.151531,185.099021 107.711958,186.538594 104.405293,186.538594 L106.677718,153.9737 L165.984362,100.394627 C168.564841,98.1222017 165.407509,96.8430555 162.00527,99.104388 L88.7150587,145.247517 L57.1199777,135.392374 C50.2613137,133.215521 50.1119804,128.533283 58.5706438,125.226618 Z" id="Shape"></path>
        </g>
    </g>
</svg>